<?xml version="1.0" encoding="UTF-8" standalone="no"?>
<svg
   xmlns:dc="http://purl.org/dc/elements/1.1/"
   xmlns:cc="http://creativecommons.org/ns#"
   xmlns:rdf="http://www.w3.org/1999/02/22-rdf-syntax-ns#"
   xmlns:svg="http://www.w3.org/2000/svg"
   xmlns="http://www.w3.org/2000/svg"
   xmlns:sodipodi="http://sodipodi.sourceforge.net/DTD/sodipodi-0.dtd"
   xmlns:inkscape="http://www.inkscape.org/namespaces/inkscape"
   viewBox="0 0 512 512"
   version="1.1"
   id="svg3763"
   sodipodi:docname="sync-dark.svg"
   inkscape:version="0.92.4 5da689c313, 2019-01-14">
  <metadata
     id="metadata3769">
    <rdf:RDF>
      <cc:Work
         rdf:about="">
        <dc:format>image/svg+xml</dc:format>
        <dc:type
           rdf:resource="http://purl.org/dc/dcmitype/StillImage" />
        <dc:title></dc:title>
      </cc:Work>
    </rdf:RDF>
  </metadata>
  <defs
     id="defs3767" />
  <sodipodi:namedview
     pagecolor="#ffffff"
     bordercolor="#666666"
     borderopacity="1"
     objecttolerance="10"
     gridtolerance="10"
     guidetolerance="10"
     inkscape:pageopacity="0"
     inkscape:pageshadow="2"
     inkscape:window-width="956"
     inkscape:window-height="1041"
     id="namedview3765"
     showgrid="false"
     inkscape:zoom="1.5332031"
     inkscape:cx="256"
     inkscape:cy="256"
     inkscape:window-x="960"
     inkscape:window-y="18"
     inkscape:window-maximized="0"
     inkscape:current-layer="svg3763" />
  <path
     d="M 256.00001,69.852349 V 0.0407643 L 164.70246,93.123638 256.00001,186.2088 v -69.81501 c 75.31591,0 136.94632,62.83157 136.94632,139.62659 0,23.27016 -5.7061,45.38382 -15.98164,65.15595 l 33.09992,33.74703 c 18.25494,-29.0914 28.53048,-62.83843 28.53048,-98.90298 0,-102.39071 -82.17007,-186.168031 -182.59508,-186.168031 z m 0,325.795771 c -75.32162,0 -136.94633,-62.83843 -136.94633,-139.62774 0,-23.27014 5.7061,-45.3781 15.97594,-65.16053 L 101.9354,157.11854 c -18.260655,27.92463 -28.530487,62.83157 -28.530487,98.90184 0,102.3907 82.170077,186.16804 182.595097,186.16804 v 69.81157 l 91.29754,-93.08172 -91.29754,-93.08631 z"
     id="path3761"
     inkscape:connector-curvature="0"
     style="stroke-width:1.14199257;fill:#ffffff" />
</svg>
